<svg width="916" height="95" viewBox="0 0 916 95" fill="none" xmlns="http://www.w3.org/2000/svg">
<path d="M123.411 37V2.92H134.451C141.171 2.92 146.243 4.344 149.667 7.192C153.091 10.04 154.803 14.264 154.803 19.864C154.803 23.256 154.035 26.232 152.499 28.792C150.963 31.352 148.819 33.368 146.067 34.84C143.315 36.28 140.131 37 136.515 37H123.411ZM131.235 30.04H136.179C139.667 30.04 142.307 29.208 144.099 27.544C145.923 25.848 146.835 23.368 146.835 20.104C146.835 16.648 145.891 14.088 144.003 12.424C142.147 10.728 139.283 9.88 135.411 9.88H131.235V30.04ZM171.403 37.48C168.683 37.48 166.331 36.984 164.347 35.992C162.363 34.968 160.827 33.544 159.739 31.72C158.651 29.864 158.107 27.672 158.107 25.144C158.107 22.584 158.651 20.328 159.739 18.376C160.859 16.424 162.347 14.904 164.203 13.816C166.091 12.728 168.219 12.184 170.587 12.184C173.275 12.184 175.467 12.792 177.163 14.008C178.859 15.224 180.027 16.952 180.667 19.192C181.339 21.4 181.483 23.976 181.099 26.92H165.595C165.787 28.136 166.427 29.16 167.515 29.992C168.603 30.792 170.091 31.192 171.979 31.192C172.843 31.192 173.755 31.016 174.715 30.664C175.675 30.28 176.491 29.72 177.163 28.984L181.243 33.304C180.187 34.584 178.875 35.608 177.307 36.376C175.771 37.112 173.803 37.48 171.403 37.48ZM170.731 17.512C169.451 17.512 168.363 17.896 167.467 18.664C166.603 19.432 166.027 20.504 165.739 21.88H174.907C174.939 20.376 174.571 19.272 173.803 18.568C173.067 17.864 172.043 17.512 170.731 17.512ZM193.285 37.48C190.821 37.48 188.917 36.808 187.573 35.464C186.261 34.088 185.605 32.104 185.605 29.512V1.48H192.949V28.984C192.949 30.456 193.637 31.192 195.013 31.192C195.749 31.192 196.373 31.016 196.885 30.664L198.661 35.896C198.117 36.344 197.365 36.712 196.405 37C195.445 37.32 194.405 37.48 193.285 37.48ZM207.762 12.568V37H200.418V12.568H207.762ZM204.066 9.688C202.658 9.688 201.538 9.256 200.706 8.392C199.874 7.528 199.458 6.504 199.458 5.32C199.458 4.136 199.858 3.112 200.658 2.248C201.49 1.384 202.626 0.951998 204.066 0.951998C205.474 0.951998 206.594 1.384 207.426 2.248C208.258 3.112 208.674 4.136 208.674 5.32C208.674 6.504 208.258 7.528 207.426 8.392C206.594 9.256 205.474 9.688 204.066 9.688ZM230.347 12.568H237.643L228.667 37H218.203L210.523 12.568H218.491L223.867 30.952L230.347 12.568ZM250.857 37.48C248.137 37.48 245.785 36.984 243.801 35.992C241.817 34.968 240.281 33.544 239.193 31.72C238.105 29.864 237.561 27.672 237.561 25.144C237.561 22.584 238.105 20.328 239.193 18.376C240.313 16.424 241.801 14.904 243.657 13.816C245.545 12.728 247.673 12.184 250.041 12.184C252.729 12.184 254.921 12.792 256.617 14.008C258.313 15.224 259.481 16.952 260.121 19.192C260.793 21.4 260.937 23.976 260.553 26.92H245.049C245.241 28.136 245.881 29.16 246.969 29.992C248.057 30.792 249.545 31.192 251.433 31.192C252.297 31.192 253.209 31.016 254.169 30.664C255.129 30.28 255.945 29.72 256.617 28.984L260.697 33.304C259.641 34.584 258.329 35.608 256.761 36.376C255.225 37.112 253.257 37.48 250.857 37.48ZM250.185 17.512C248.905 17.512 247.817 17.896 246.921 18.664C246.057 19.432 245.481 20.504 245.193 21.88H254.361C254.393 20.376 254.025 19.272 253.257 18.568C252.521 17.864 251.497 17.512 250.185 17.512ZM281.811 19.672C281.171 19.416 280.307 19.288 279.219 19.288C277.555 19.288 276.227 19.88 275.235 21.064C274.243 22.216 273.523 24.104 273.075 26.728C272.627 29.32 272.403 32.744 272.403 37H265.107V21.16L265.011 12.568H272.355L272.019 18.664C272.883 16.328 274.035 14.664 275.475 13.672C276.947 12.68 278.515 12.184 280.179 12.184C280.723 12.184 281.219 12.216 281.667 12.28C282.147 12.344 282.627 12.456 283.107 12.616L281.811 19.672ZM292.887 12.568V37H285.543V12.568H292.887ZM289.191 9.688C287.783 9.688 286.663 9.256 285.831 8.392C284.999 7.528 284.583 6.504 284.583 5.32C284.583 4.136 284.983 3.112 285.783 2.248C286.615 1.384 287.751 0.951998 289.191 0.951998C290.599 0.951998 291.719 1.384 292.551 2.248C293.383 3.112 293.799 4.136 293.799 5.32C293.799 6.504 293.383 7.528 292.551 8.392C291.719 9.256 290.599 9.688 289.191 9.688ZM298.48 37V12.568H305.776L305.44 17.8C306.432 16.008 307.696 14.632 309.232 13.672C310.8 12.68 312.544 12.184 314.464 12.184C317.376 12.184 319.552 13.176 320.992 15.16C322.432 17.112 323.136 19.928 323.104 23.608L323.008 37H315.664L315.76 24.136C315.792 22.472 315.536 21.208 314.992 20.344C314.48 19.448 313.648 19 312.496 19C311.536 19 310.656 19.288 309.856 19.864C309.056 20.408 308.352 21.352 307.744 22.696C307.168 24.04 306.704 25.88 306.352 28.216C306 30.552 305.808 33.48 305.776 37H298.48ZM337.267 47.08C336.307 47.08 335.251 47 334.099 46.84C332.979 46.712 331.907 46.504 330.883 46.216C329.859 45.928 328.979 45.544 328.243 45.064L330.019 38.824C331.075 39.368 332.227 39.8 333.475 40.12C334.755 40.472 336.163 40.648 337.699 40.648C340.387 40.648 342.291 40.04 343.411 38.824C344.531 37.608 345.171 35.704 345.331 33.112L345.379 32.68C343.651 35.24 341.091 36.52 337.699 36.52C335.459 36.52 333.555 36.056 331.987 35.128C330.419 34.2 329.219 32.904 328.387 31.24C327.555 29.576 327.139 27.656 327.139 25.48C327.139 22.856 327.683 20.552 328.771 18.568C329.891 16.584 331.395 15.032 333.283 13.912C335.171 12.76 337.315 12.184 339.715 12.184C341.315 12.184 342.707 12.504 343.891 13.144C345.107 13.752 346.035 14.568 346.675 15.592L347.299 12.664H352.579V32.248C352.579 35.576 351.939 38.328 350.659 40.504C349.411 42.712 347.635 44.36 345.331 45.448C343.059 46.536 340.371 47.08 337.267 47.08ZM340.483 18.568C338.691 18.568 337.283 19.176 336.259 20.392C335.235 21.608 334.723 23.144 334.723 25C334.723 26.632 335.123 27.896 335.923 28.792C336.755 29.688 337.875 30.136 339.283 30.136C340.403 30.136 341.411 29.848 342.307 29.272C343.203 28.696 343.907 27.896 344.419 26.872C344.963 25.848 345.235 24.68 345.235 23.368C345.235 21.896 344.803 20.728 343.939 19.864C343.075 19 341.923 18.568 340.483 18.568ZM387.092 19.672C386.452 19.416 385.588 19.288 384.5 19.288C382.836 19.288 381.508 19.88 380.516 21.064C379.524 22.216 378.804 24.104 378.356 26.728C377.908 29.32 377.684 32.744 377.684 37H370.388V21.16L370.292 12.568H377.636L377.3 18.664C378.164 16.328 379.316 14.664 380.756 13.672C382.228 12.68 383.796 12.184 385.46 12.184C386.004 12.184 386.5 12.216 386.948 12.28C387.428 12.344 387.908 12.456 388.388 12.616L387.092 19.672ZM402.028 37.48C399.308 37.48 396.956 36.984 394.972 35.992C392.988 34.968 391.452 33.544 390.364 31.72C389.276 29.864 388.732 27.672 388.732 25.144C388.732 22.584 389.276 20.328 390.364 18.376C391.484 16.424 392.972 14.904 394.828 13.816C396.716 12.728 398.844 12.184 401.212 12.184C403.9 12.184 406.092 12.792 407.788 14.008C409.484 15.224 410.652 16.952 411.292 19.192C411.964 21.4 412.108 23.976 411.724 26.92H396.22C396.412 28.136 397.052 29.16 398.14 29.992C399.228 30.792 400.716 31.192 402.604 31.192C403.468 31.192 404.38 31.016 405.34 30.664C406.3 30.28 407.116 29.72 407.788 28.984L411.868 33.304C410.812 34.584 409.5 35.608 407.932 36.376C406.396 37.112 404.428 37.48 402.028 37.48ZM401.356 17.512C400.076 17.512 398.988 17.896 398.092 18.664C397.228 19.432 396.652 20.504 396.364 21.88H405.532C405.564 20.376 405.196 19.272 404.428 18.568C403.692 17.864 402.668 17.512 401.356 17.512ZM440.23 12.664V37H432.838L433.078 33.352C431.318 36.104 428.71 37.48 425.254 37.48C423.078 37.48 421.222 36.984 419.686 35.992C418.15 35 416.982 33.624 416.182 31.864C415.382 30.104 414.982 28.088 414.982 25.816C414.982 23.096 415.542 20.712 416.662 18.664C417.782 16.616 419.286 15.032 421.174 13.912C423.062 12.76 425.174 12.184 427.51 12.184C429.046 12.184 430.406 12.504 431.59 13.144C432.774 13.752 433.686 14.568 434.326 15.592L434.95 12.664H440.23ZM428.23 18.568C426.47 18.568 425.078 19.224 424.054 20.536C423.062 21.848 422.566 23.528 422.566 25.576C422.566 27.336 422.95 28.696 423.718 29.656C424.518 30.616 425.59 31.096 426.934 31.096C428.566 31.096 429.958 30.424 431.11 29.08C432.294 27.736 432.886 25.976 432.886 23.8C432.886 22.168 432.47 20.888 431.638 19.96C430.806 19.032 429.67 18.568 428.23 18.568ZM453.582 37.48C451.118 37.48 449.214 36.808 447.87 35.464C446.558 34.088 445.902 32.104 445.902 29.512V1.48H453.246V28.984C453.246 30.456 453.934 31.192 455.31 31.192C456.046 31.192 456.67 31.016 457.182 30.664L458.958 35.896C458.414 36.344 457.662 36.712 456.702 37C455.742 37.32 454.702 37.48 453.582 37.48ZM489.561 19.672C488.921 19.416 488.057 19.288 486.969 19.288C485.305 19.288 483.977 19.88 482.985 21.064C481.993 22.216 481.273 24.104 480.825 26.728C480.377 29.32 480.153 32.744 480.153 37H472.857V21.16L472.761 12.568H480.105L479.769 18.664C480.633 16.328 481.785 14.664 483.225 13.672C484.697 12.68 486.265 12.184 487.929 12.184C488.473 12.184 488.969 12.216 489.417 12.28C489.897 12.344 490.377 12.456 490.857 12.616L489.561 19.672ZM504.497 37.48C501.777 37.48 499.425 36.984 497.441 35.992C495.457 34.968 493.921 33.544 492.833 31.72C491.745 29.864 491.201 27.672 491.201 25.144C491.201 22.584 491.745 20.328 492.833 18.376C493.953 16.424 495.441 14.904 497.297 13.816C499.185 12.728 501.313 12.184 503.681 12.184C506.369 12.184 508.561 12.792 510.257 14.008C511.953 15.224 513.121 16.952 513.761 19.192C514.433 21.4 514.577 23.976 514.193 26.92H498.689C498.881 28.136 499.521 29.16 500.609 29.992C501.697 30.792 503.185 31.192 505.073 31.192C505.937 31.192 506.849 31.016 507.809 30.664C508.769 30.28 509.585 29.72 510.257 28.984L514.337 33.304C513.281 34.584 511.969 35.608 510.401 36.376C508.865 37.112 506.897 37.48 504.497 37.48ZM503.825 17.512C502.545 17.512 501.457 17.896 500.561 18.664C499.697 19.432 499.121 20.504 498.833 21.88H508.001C508.033 20.376 507.665 19.272 506.897 18.568C506.161 17.864 505.137 17.512 503.825 17.512ZM527.675 37.48C524.123 37.48 521.435 36.824 519.611 35.512C517.787 34.168 516.715 32.408 516.395 30.232L522.491 28.696C522.683 29.624 523.211 30.376 524.075 30.952C524.939 31.496 526.123 31.768 527.627 31.768C530.027 31.768 531.227 31.208 531.227 30.088C531.227 29.512 530.875 29.08 530.171 28.792C529.499 28.472 528.395 28.168 526.859 27.88C523.979 27.368 521.739 26.552 520.139 25.432C518.571 24.312 517.787 22.6 517.787 20.296C517.787 18.728 518.235 17.336 519.131 16.12C520.027 14.904 521.259 13.944 522.827 13.24C524.395 12.536 526.203 12.184 528.251 12.184C530.907 12.184 533.099 12.808 534.827 14.056C536.587 15.304 537.627 16.84 537.947 18.664L531.947 20.296C531.723 19.592 531.275 19.016 530.603 18.568C529.963 18.12 529.083 17.896 527.963 17.896C526.907 17.896 526.123 18.072 525.611 18.424C525.131 18.776 524.891 19.192 524.891 19.672C524.891 20.248 525.227 20.712 525.899 21.064C526.571 21.384 527.755 21.72 529.451 22.072C531.179 22.392 532.699 22.84 534.011 23.416C535.355 23.96 536.395 24.728 537.131 25.72C537.899 26.68 538.283 27.992 538.283 29.656C538.283 31.224 537.819 32.6 536.891 33.784C535.995 34.968 534.747 35.88 533.147 36.52C531.547 37.16 529.723 37.48 527.675 37.48ZM550.06 37.48C547.244 37.48 545.116 36.52 543.676 34.6C542.236 32.68 541.532 30.008 541.564 26.584L541.66 12.568H549.004L548.908 26.008C548.908 27.448 549.164 28.584 549.676 29.416C550.188 30.248 550.988 30.664 552.076 30.664C553.004 30.664 553.852 30.376 554.62 29.8C555.388 29.224 556.06 28.264 556.636 26.92C557.212 25.576 557.66 23.736 557.98 21.4C558.332 19.064 558.524 16.12 558.556 12.568H565.66V37H558.316L558.652 32.296C557.692 33.96 556.476 35.24 555.004 36.136C553.532 37.032 551.884 37.48 550.06 37.48ZM578.973 37.48C576.509 37.48 574.605 36.808 573.261 35.464C571.949 34.088 571.293 32.104 571.293 29.512V1.48H578.637V28.984C578.637 30.456 579.325 31.192 580.701 31.192C581.437 31.192 582.061 31.016 582.573 30.664L584.349 35.896C583.805 36.344 583.053 36.712 582.093 37C581.133 37.32 580.093 37.48 578.973 37.48ZM596.629 37.48C593.621 37.48 591.237 36.648 589.477 34.984C587.717 33.288 586.853 31.064 586.885 28.312L587.077 18.664H583.045V12.568H587.173L587.221 7.576H594.517L594.469 12.568H602.101V18.664H594.373L594.229 27.496C594.229 28.648 594.533 29.544 595.141 30.184C595.749 30.824 596.661 31.144 597.877 31.144C598.581 31.144 599.253 31.064 599.893 30.904C600.565 30.712 601.253 30.36 601.957 29.848L604.069 35.464C602.437 36.808 599.957 37.48 596.629 37.48ZM615.144 37.48C611.592 37.48 608.904 36.824 607.08 35.512C605.256 34.168 604.184 32.408 603.864 30.232L609.96 28.696C610.152 29.624 610.68 30.376 611.544 30.952C612.408 31.496 613.592 31.768 615.096 31.768C617.496 31.768 618.696 31.208 618.696 30.088C618.696 29.512 618.344 29.08 617.64 28.792C616.968 28.472 615.864 28.168 614.328 27.88C611.448 27.368 609.208 26.552 607.608 25.432C606.04 24.312 605.256 22.6 605.256 20.296C605.256 18.728 605.704 17.336 606.6 16.12C607.496 14.904 608.728 13.944 610.296 13.24C611.864 12.536 613.672 12.184 615.72 12.184C618.376 12.184 620.568 12.808 622.296 14.056C624.056 15.304 625.096 16.84 625.416 18.664L619.416 20.296C619.192 19.592 618.744 19.016 618.072 18.568C617.432 18.12 616.552 17.896 615.432 17.896C614.376 17.896 613.592 18.072 613.08 18.424C612.6 18.776 612.36 19.192 612.36 19.672C612.36 20.248 612.696 20.712 613.368 21.064C614.04 21.384 615.224 21.72 616.92 22.072C618.648 22.392 620.168 22.84 621.48 23.416C622.824 23.96 623.864 24.728 624.6 25.72C625.368 26.68 625.752 27.992 625.752 29.656C625.752 31.224 625.288 32.6 624.36 33.784C623.464 34.968 622.216 35.88 620.616 36.52C619.016 37.16 617.192 37.48 615.144 37.48ZM642.903 37V18.664H638.391V12.568H642.903V11.8C642.903 9.592 643.383 7.688 644.343 6.088C645.303 4.456 646.599 3.208 648.231 2.344C649.895 1.448 651.767 0.999997 653.847 0.999997C656.311 0.999997 658.311 1.608 659.847 2.824C661.383 4.04 662.327 5.912 662.679 8.44L656.391 9.208C656.295 8.568 656.007 8.072 655.527 7.72C655.047 7.368 654.439 7.192 653.703 7.192C652.583 7.192 651.703 7.544 651.063 8.248C650.455 8.92 650.151 9.896 650.151 11.176V12.568H656.727V18.664H650.247V37H642.903ZM671.089 12.184C674.897 12.184 677.873 13.272 680.017 15.448C682.193 17.624 683.281 20.568 683.281 24.28C683.281 26.808 682.737 29.064 681.649 31.048C680.561 33.032 679.025 34.6 677.041 35.752C675.057 36.904 672.721 37.48 670.033 37.48C666.257 37.48 663.281 36.392 661.105 34.216C658.961 32.04 657.889 29.112 657.889 25.432C657.889 22.872 658.433 20.6 659.521 18.616C660.609 16.632 662.145 15.064 664.129 13.912C666.113 12.76 668.433 12.184 671.089 12.184ZM670.369 31.096C672.001 31.096 673.297 30.488 674.257 29.272C675.249 28.024 675.745 26.36 675.745 24.28C675.745 22.488 675.313 21.096 674.449 20.104C673.585 19.08 672.401 18.568 670.897 18.568C669.233 18.568 667.905 19.192 666.913 20.44C665.953 21.656 665.473 23.304 665.473 25.384C665.473 27.176 665.889 28.584 666.721 29.608C667.585 30.6 668.801 31.096 670.369 31.096ZM704.482 19.672C703.842 19.416 702.978 19.288 701.89 19.288C700.226 19.288 698.898 19.88 697.906 21.064C696.914 22.216 696.194 24.104 695.746 26.728C695.298 29.32 695.074 32.744 695.074 37H687.778V21.16L687.682 12.568H695.026L694.69 18.664C695.554 16.328 696.706 14.664 698.146 13.672C699.618 12.68 701.186 12.184 702.85 12.184C703.394 12.184 703.89 12.216 704.338 12.28C704.818 12.344 705.298 12.456 705.778 12.616L704.482 19.672ZM731.301 37.48C728.293 37.48 725.909 36.648 724.149 34.984C722.389 33.288 721.525 31.064 721.557 28.312L721.749 18.664H717.717V12.568H721.845L721.893 7.576H729.189L729.141 12.568H736.773V18.664H729.045L728.901 27.496C728.901 28.648 729.205 29.544 729.813 30.184C730.421 30.824 731.333 31.144 732.549 31.144C733.253 31.144 733.925 31.064 734.565 30.904C735.237 30.712 735.925 30.36 736.629 29.848L738.741 35.464C737.109 36.808 734.629 37.48 731.301 37.48ZM752.323 12.184C756.131 12.184 759.107 13.272 761.251 15.448C763.427 17.624 764.515 20.568 764.515 24.28C764.515 26.808 763.971 29.064 762.883 31.048C761.795 33.032 760.259 34.6 758.275 35.752C756.291 36.904 753.955 37.48 751.267 37.48C747.491 37.48 744.515 36.392 742.339 34.216C740.195 32.04 739.123 29.112 739.123 25.432C739.123 22.872 739.667 20.6 740.755 18.616C741.843 16.632 743.379 15.064 745.363 13.912C747.347 12.76 749.667 12.184 752.323 12.184ZM751.603 31.096C753.235 31.096 754.531 30.488 755.491 29.272C756.483 28.024 756.979 26.36 756.979 24.28C756.979 22.488 756.547 21.096 755.683 20.104C754.819 19.08 753.635 18.568 752.131 18.568C750.467 18.568 749.139 19.192 748.147 20.44C747.187 21.656 746.707 23.304 746.707 25.384C746.707 27.176 747.123 28.584 747.955 29.608C748.819 30.6 750.035 31.096 751.603 31.096ZM768.965 46.6V12.568H776.357L776.117 16.312C777.877 13.56 780.485 12.184 783.941 12.184C786.117 12.184 787.973 12.68 789.509 13.672C791.045 14.664 792.213 16.04 793.013 17.8C793.813 19.56 794.213 21.576 794.213 23.848C794.213 26.568 793.653 28.952 792.533 31C791.413 33.048 789.909 34.648 788.021 35.8C786.133 36.92 784.021 37.48 781.685 37.48C780.565 37.48 779.541 37.32 778.613 37C777.717 36.68 776.917 36.232 776.213 35.656L776.309 37V46.6H768.965ZM780.917 31.096C782.677 31.096 784.069 30.44 785.093 29.128C786.117 27.784 786.629 26.088 786.629 24.04C786.629 22.312 786.229 20.968 785.429 20.008C784.661 19.048 783.605 18.568 782.261 18.568C780.629 18.568 779.221 19.24 778.037 20.584C776.885 21.928 776.309 23.688 776.309 25.864C776.309 27.464 776.725 28.744 777.557 29.704C778.389 30.632 779.509 31.096 780.917 31.096ZM13.2504 85.48C10.7224 85.48 8.53038 85 6.67438 84.04C4.81838 83.048 3.37838 81.64 2.35438 79.816C1.33038 77.992 0.818375 75.816 0.818375 73.288C0.818375 70.696 1.36238 68.424 2.45038 66.472C3.57038 64.488 5.10638 62.952 7.05838 61.864C9.01038 60.744 11.2824 60.184 13.8744 60.184C15.9864 60.184 17.8584 60.6 19.4904 61.432C21.1224 62.264 22.4344 63.56 23.4264 65.32L18.2424 69.256C17.7304 68.328 17.1224 67.656 16.4184 67.24C15.7464 66.824 14.8984 66.616 13.8744 66.616C12.3064 66.616 11.0104 67.224 9.98638 68.44C8.96238 69.624 8.45038 71.192 8.45038 73.144C8.45038 75.032 8.89838 76.488 9.79438 77.512C10.7224 78.536 12.0504 79.048 13.7784 79.048C14.7064 79.048 15.5544 78.84 16.3224 78.424C17.1224 77.976 17.7944 77.288 18.3384 76.36L23.3784 80.392C22.2904 82.248 20.8504 83.56 19.0584 84.328C17.2984 85.096 15.3624 85.48 13.2504 85.48ZM36.9403 60.184C40.7483 60.184 43.7243 61.272 45.8683 63.448C48.0443 65.624 49.1323 68.568 49.1323 72.28C49.1323 74.808 48.5883 77.064 47.5002 79.048C46.4123 81.032 44.8763 82.6 42.8923 83.752C40.9083 84.904 38.5723 85.48 35.8843 85.48C32.1083 85.48 29.1323 84.392 26.9563 82.216C24.8123 80.04 23.7402 77.112 23.7402 73.432C23.7402 70.872 24.2843 68.6 25.3723 66.616C26.4603 64.632 27.9963 63.064 29.9803 61.912C31.9643 60.76 34.2843 60.184 36.9403 60.184ZM36.2203 79.096C37.8523 79.096 39.1483 78.488 40.1083 77.272C41.1003 76.024 41.5963 74.36 41.5963 72.28C41.5963 70.488 41.1643 69.096 40.3003 68.104C39.4363 67.08 38.2523 66.568 36.7483 66.568C35.0843 66.568 33.7563 67.192 32.7643 68.44C31.8043 69.656 31.3243 71.304 31.3243 73.384C31.3243 75.176 31.7403 76.584 32.5723 77.608C33.4363 78.6 34.6523 79.096 36.2203 79.096ZM53.582 85V60.568H60.878L60.59 65.608C61.614 63.72 62.894 62.344 64.43 61.48C65.966 60.616 67.598 60.184 69.326 60.184C71.022 60.184 72.542 60.616 73.886 61.48C75.23 62.312 76.254 63.672 76.958 65.56C78.046 63.736 79.422 62.392 81.086 61.528C82.782 60.632 84.494 60.184 86.222 60.184C89.102 60.184 91.262 61.176 92.702 63.16C94.142 65.112 94.846 67.928 94.814 71.608L94.718 85H87.374L87.47 71.752C87.47 70.28 87.198 69.128 86.654 68.296C86.11 67.432 85.278 67 84.158 67C83.294 67 82.478 67.272 81.71 67.816C80.974 68.36 80.318 69.304 79.742 70.648C79.166 71.992 78.702 73.832 78.35 76.168C78.03 78.504 77.838 81.448 77.774 85H70.478V71.752C70.478 70.28 70.222 69.128 69.71 68.296C69.198 67.432 68.382 67 67.262 67C66.398 67 65.582 67.272 64.814 67.816C64.078 68.36 63.422 69.304 62.846 70.648C62.27 71.992 61.806 73.832 61.454 76.168C61.102 78.504 60.91 81.448 60.878 85H53.582ZM100.035 94.6V60.568H107.427L107.187 64.312C108.947 61.56 111.555 60.184 115.011 60.184C117.187 60.184 119.043 60.68 120.579 61.672C122.115 62.664 123.283 64.04 124.083 65.8C124.883 67.56 125.283 69.576 125.283 71.848C125.283 74.568 124.723 76.952 123.603 79C122.483 81.048 120.979 82.648 119.091 83.8C117.203 84.92 115.091 85.48 112.755 85.48C111.635 85.48 110.611 85.32 109.683 85C108.787 84.68 107.987 84.232 107.283 83.656L107.379 85V94.6H100.035ZM111.987 79.096C113.747 79.096 115.139 78.44 116.163 77.128C117.187 75.784 117.699 74.088 117.699 72.04C117.699 70.312 117.299 68.968 116.499 68.008C115.731 67.048 114.675 66.568 113.331 66.568C111.699 66.568 110.291 67.24 109.107 68.584C107.955 69.928 107.379 71.688 107.379 73.864C107.379 75.464 107.795 76.744 108.627 77.704C109.459 78.632 110.579 79.096 111.987 79.096ZM153.707 60.664V85H146.315L146.555 81.352C144.795 84.104 142.187 85.48 138.731 85.48C136.555 85.48 134.699 84.984 133.163 83.992C131.627 83 130.459 81.624 129.659 79.864C128.859 78.104 128.459 76.088 128.459 73.816C128.459 71.096 129.019 68.712 130.139 66.664C131.259 64.616 132.763 63.032 134.651 61.912C136.539 60.76 138.651 60.184 140.987 60.184C142.523 60.184 143.883 60.504 145.067 61.144C146.251 61.752 147.163 62.568 147.803 63.592L148.427 60.664H153.707ZM141.707 66.568C139.947 66.568 138.555 67.224 137.531 68.536C136.539 69.848 136.043 71.528 136.043 73.576C136.043 75.336 136.427 76.696 137.195 77.656C137.995 78.616 139.067 79.096 140.411 79.096C142.043 79.096 143.435 78.424 144.587 77.08C145.771 75.736 146.363 73.976 146.363 71.8C146.363 70.168 145.947 68.888 145.115 67.96C144.283 67.032 143.147 66.568 141.707 66.568ZM159.379 85V60.568H166.675L166.339 65.8C167.331 64.008 168.595 62.632 170.131 61.672C171.699 60.68 173.443 60.184 175.363 60.184C178.275 60.184 180.451 61.176 181.891 63.16C183.331 65.112 184.035 67.928 184.003 71.608L183.907 85H176.563L176.659 72.136C176.691 70.472 176.435 69.208 175.891 68.344C175.379 67.448 174.547 67 173.395 67C172.435 67 171.555 67.288 170.755 67.864C169.955 68.408 169.251 69.352 168.643 70.696C168.067 72.04 167.603 73.88 167.251 76.216C166.899 78.552 166.707 81.48 166.675 85H159.379ZM196.629 60.568V85H189.285V60.568H196.629ZM192.933 57.688C191.525 57.688 190.405 57.256 189.573 56.392C188.741 55.528 188.325 54.504 188.325 53.32C188.325 52.136 188.725 51.112 189.525 50.248C190.357 49.384 191.493 48.952 192.933 48.952C194.341 48.952 195.461 49.384 196.293 50.248C197.125 51.112 197.541 52.136 197.541 53.32C197.541 54.504 197.125 55.528 196.293 56.392C195.461 57.256 194.341 57.688 192.933 57.688ZM214.271 85.48C211.551 85.48 209.199 84.984 207.215 83.992C205.231 82.968 203.695 81.544 202.607 79.72C201.519 77.864 200.975 75.672 200.975 73.144C200.975 70.584 201.519 68.328 202.607 66.376C203.727 64.424 205.215 62.904 207.071 61.816C208.959 60.728 211.087 60.184 213.455 60.184C216.143 60.184 218.335 60.792 220.031 62.008C221.727 63.224 222.895 64.952 223.535 67.192C224.207 69.4 224.351 71.976 223.967 74.92H208.463C208.655 76.136 209.295 77.16 210.383 77.992C211.471 78.792 212.959 79.192 214.847 79.192C215.711 79.192 216.623 79.016 217.583 78.664C218.543 78.28 219.359 77.72 220.031 76.984L224.111 81.304C223.055 82.584 221.743 83.608 220.175 84.376C218.639 85.112 216.671 85.48 214.271 85.48ZM213.599 65.512C212.319 65.512 211.231 65.896 210.335 66.664C209.471 67.432 208.895 68.504 208.607 69.88H217.775C217.807 68.376 217.439 67.272 216.671 66.568C215.935 65.864 214.911 65.512 213.599 65.512ZM237.449 85.48C233.897 85.48 231.209 84.824 229.385 83.512C227.561 82.168 226.489 80.408 226.169 78.232L232.265 76.696C232.457 77.624 232.985 78.376 233.849 78.952C234.713 79.496 235.897 79.768 237.401 79.768C239.801 79.768 241.001 79.208 241.001 78.088C241.001 77.512 240.649 77.08 239.945 76.792C239.273 76.472 238.169 76.168 236.633 75.88C233.753 75.368 231.513 74.552 229.913 73.432C228.345 72.312 227.561 70.6 227.561 68.296C227.561 66.728 228.009 65.336 228.905 64.12C229.801 62.904 231.033 61.944 232.601 61.24C234.169 60.536 235.977 60.184 238.025 60.184C240.681 60.184 242.873 60.808 244.601 62.056C246.361 63.304 247.401 64.84 247.721 66.664L241.721 68.296C241.497 67.592 241.049 67.016 240.377 66.568C239.737 66.12 238.857 65.896 237.737 65.896C236.681 65.896 235.897 66.072 235.385 66.424C234.905 66.776 234.665 67.192 234.665 67.672C234.665 68.248 235.001 68.712 235.673 69.064C236.345 69.384 237.529 69.72 239.225 70.072C240.953 70.392 242.473 70.84 243.785 71.416C245.129 71.96 246.169 72.728 246.905 73.72C247.673 74.68 248.057 75.992 248.057 77.656C248.057 79.224 247.593 80.6 246.665 81.784C245.769 82.968 244.521 83.88 242.921 84.52C241.321 85.16 239.497 85.48 237.449 85.48ZM255.514 85.48C253.978 85.48 252.762 85.016 251.866 84.088C250.97 83.16 250.521 82.008 250.521 80.632C250.521 79.256 250.97 78.104 251.866 77.176C252.762 76.248 253.978 75.784 255.514 75.784C257.05 75.784 258.266 76.248 259.162 77.176C260.09 78.104 260.554 79.256 260.554 80.632C260.554 82.008 260.09 83.16 259.162 84.088C258.266 85.016 257.05 85.48 255.514 85.48ZM288.506 85.432C284.314 85.432 281.066 84.536 278.762 82.744C276.458 80.952 275.146 78.312 274.826 74.824L282.17 73.768C282.362 75.432 283.018 76.712 284.138 77.608C285.258 78.472 286.81 78.904 288.794 78.904C290.49 78.904 291.786 78.616 292.682 78.04C293.61 77.432 294.074 76.584 294.074 75.496C294.074 74.504 293.594 73.72 292.634 73.144C291.674 72.568 290.09 72.024 287.882 71.512C285.514 70.936 283.514 70.248 281.882 69.448C280.25 68.616 279.018 67.544 278.186 66.232C277.354 64.92 276.938 63.256 276.938 61.24C276.938 59.128 277.482 57.256 278.57 55.624C279.658 53.992 281.178 52.728 283.13 51.832C285.082 50.904 287.338 50.44 289.898 50.44C293.226 50.44 295.946 51.288 298.058 52.984C300.17 54.68 301.386 57 301.706 59.944L294.842 61.096C294.586 59.784 293.994 58.776 293.066 58.072C292.138 57.336 290.97 56.968 289.562 56.968C288.154 56.968 287.018 57.304 286.154 57.976C285.29 58.616 284.858 59.496 284.858 60.616C284.858 61.64 285.274 62.472 286.106 63.112C286.938 63.72 288.458 64.296 290.666 64.84C293.002 65.416 295.018 66.072 296.714 66.808C298.41 67.512 299.706 68.488 300.602 69.736C301.53 70.984 301.994 72.68 301.994 74.824C301.994 76.904 301.434 78.744 300.314 80.344C299.194 81.944 297.61 83.192 295.562 84.088C293.546 84.984 291.194 85.432 288.506 85.432ZM317.768 60.184C321.576 60.184 324.552 61.272 326.696 63.448C328.872 65.624 329.96 68.568 329.96 72.28C329.96 74.808 329.416 77.064 328.328 79.048C327.24 81.032 325.704 82.6 323.72 83.752C321.736 84.904 319.4 85.48 316.712 85.48C312.936 85.48 309.96 84.392 307.784 82.216C305.64 80.04 304.568 77.112 304.568 73.432C304.568 70.872 305.112 68.6 306.2 66.616C307.288 64.632 308.824 63.064 310.808 61.912C312.792 60.76 315.112 60.184 317.768 60.184ZM317.048 79.096C318.68 79.096 319.976 78.488 320.936 77.272C321.928 76.024 322.424 74.36 322.424 72.28C322.424 70.488 321.992 69.096 321.128 68.104C320.264 67.08 319.08 66.568 317.576 66.568C315.912 66.568 314.584 67.192 313.592 68.44C312.632 69.656 312.152 71.304 312.152 73.384C312.152 75.176 312.568 76.584 313.4 77.608C314.264 78.6 315.48 79.096 317.048 79.096ZM334.41 85V60.568H341.706L341.418 65.608C342.442 63.72 343.722 62.344 345.258 61.48C346.794 60.616 348.426 60.184 350.154 60.184C351.85 60.184 353.37 60.616 354.714 61.48C356.058 62.312 357.082 63.672 357.786 65.56C358.874 63.736 360.25 62.392 361.914 61.528C363.61 60.632 365.322 60.184 367.05 60.184C369.93 60.184 372.09 61.176 373.53 63.16C374.97 65.112 375.674 67.928 375.642 71.608L375.546 85H368.202L368.298 71.752C368.298 70.28 368.026 69.128 367.482 68.296C366.938 67.432 366.106 67 364.986 67C364.122 67 363.306 67.272 362.538 67.816C361.802 68.36 361.146 69.304 360.57 70.648C359.994 71.992 359.53 73.832 359.178 76.168C358.858 78.504 358.666 81.448 358.602 85H351.306V71.752C351.306 70.28 351.05 69.128 350.538 68.296C350.026 67.432 349.21 67 348.09 67C347.226 67 346.41 67.272 345.642 67.816C344.906 68.36 344.25 69.304 343.674 70.648C343.098 71.992 342.634 73.832 342.282 76.168C341.93 78.504 341.738 81.448 341.706 85H334.41ZM392.911 85.48C390.191 85.48 387.839 84.984 385.855 83.992C383.871 82.968 382.335 81.544 381.247 79.72C380.159 77.864 379.615 75.672 379.615 73.144C379.615 70.584 380.159 68.328 381.247 66.376C382.367 64.424 383.855 62.904 385.711 61.816C387.599 60.728 389.727 60.184 392.095 60.184C394.783 60.184 396.975 60.792 398.671 62.008C400.367 63.224 401.535 64.952 402.175 67.192C402.847 69.4 402.991 71.976 402.607 74.92H387.103C387.295 76.136 387.935 77.16 389.023 77.992C390.111 78.792 391.599 79.192 393.487 79.192C394.351 79.192 395.263 79.016 396.223 78.664C397.183 78.28 397.999 77.72 398.671 76.984L402.751 81.304C401.695 82.584 400.383 83.608 398.815 84.376C397.279 85.112 395.311 85.48 392.911 85.48ZM392.239 65.512C390.959 65.512 389.871 65.896 388.975 66.664C388.111 67.432 387.535 68.504 387.247 69.88H396.415C396.447 68.376 396.079 67.272 395.311 66.568C394.575 65.864 393.551 65.512 392.239 65.512ZM431.159 60.184C434.967 60.184 437.943 61.272 440.087 63.448C442.263 65.624 443.351 68.568 443.351 72.28C443.351 74.808 442.807 77.064 441.719 79.048C440.631 81.032 439.095 82.6 437.111 83.752C435.127 84.904 432.791 85.48 430.103 85.48C426.327 85.48 423.351 84.392 421.175 82.216C419.031 80.04 417.959 77.112 417.959 73.432C417.959 70.872 418.503 68.6 419.591 66.616C420.679 64.632 422.215 63.064 424.199 61.912C426.183 60.76 428.503 60.184 431.159 60.184ZM430.439 79.096C432.071 79.096 433.367 78.488 434.327 77.272C435.319 76.024 435.815 74.36 435.815 72.28C435.815 70.488 435.383 69.096 434.519 68.104C433.655 67.08 432.471 66.568 430.967 66.568C429.303 66.568 427.975 67.192 426.983 68.44C426.023 69.656 425.543 71.304 425.543 73.384C425.543 75.176 425.959 76.584 426.791 77.608C427.655 78.6 428.871 79.096 430.439 79.096ZM449.145 85V66.664H444.633V60.568H449.145V59.8C449.145 57.592 449.625 55.688 450.585 54.088C451.545 52.456 452.841 51.208 454.473 50.344C456.137 49.448 458.009 49 460.089 49C462.553 49 464.553 49.608 466.089 50.824C467.625 52.04 468.569 53.912 468.921 56.44L462.633 57.208C462.537 56.568 462.249 56.072 461.769 55.72C461.289 55.368 460.681 55.192 459.945 55.192C458.825 55.192 457.945 55.544 457.305 56.248C456.697 56.92 456.393 57.896 456.393 59.176V60.568H462.969V66.664H456.489V85H449.145ZM490.034 60.184C493.842 60.184 496.818 61.272 498.962 63.448C501.138 65.624 502.226 68.568 502.226 72.28C502.226 74.808 501.682 77.064 500.594 79.048C499.506 81.032 497.97 82.6 495.986 83.752C494.002 84.904 491.666 85.48 488.978 85.48C485.202 85.48 482.226 84.392 480.05 82.216C477.906 80.04 476.834 77.112 476.834 73.432C476.834 70.872 477.378 68.6 478.466 66.616C479.554 64.632 481.09 63.064 483.074 61.912C485.058 60.76 487.378 60.184 490.034 60.184ZM489.314 79.096C490.946 79.096 492.242 78.488 493.202 77.272C494.194 76.024 494.69 74.36 494.69 72.28C494.69 70.488 494.258 69.096 493.394 68.104C492.53 67.08 491.346 66.568 489.842 66.568C488.178 66.568 486.85 67.192 485.858 68.44C484.898 69.656 484.418 71.304 484.418 73.384C484.418 75.176 484.834 76.584 485.666 77.608C486.53 78.6 487.746 79.096 489.314 79.096ZM514.74 85.48C511.924 85.48 509.796 84.52 508.356 82.6C506.916 80.68 506.212 78.008 506.244 74.584L506.34 60.568H513.684L513.588 74.008C513.588 75.448 513.844 76.584 514.356 77.416C514.868 78.248 515.668 78.664 516.756 78.664C517.684 78.664 518.532 78.376 519.3 77.8C520.068 77.224 520.74 76.264 521.316 74.92C521.892 73.576 522.34 71.736 522.66 69.4C523.012 67.064 523.204 64.12 523.236 60.568H530.34V85H522.996L523.332 80.296C522.372 81.96 521.156 83.24 519.684 84.136C518.212 85.032 516.564 85.48 514.74 85.48ZM552.725 67.672C552.085 67.416 551.221 67.288 550.133 67.288C548.469 67.288 547.141 67.88 546.149 69.064C545.157 70.216 544.437 72.104 543.989 74.728C543.541 77.32 543.317 80.744 543.317 85H536.021V69.16L535.925 60.568H543.269L542.933 66.664C543.797 64.328 544.949 62.664 546.389 61.672C547.861 60.68 549.429 60.184 551.093 60.184C551.637 60.184 552.133 60.216 552.581 60.28C553.061 60.344 553.541 60.456 554.021 60.616L552.725 67.672Z" fill="white"/>
<path d="M577.527 85.48C573.975 85.48 571.287 84.824 569.463 83.512C567.639 82.168 566.567 80.408 566.247 78.232L572.343 76.696C572.535 77.624 573.063 78.376 573.927 78.952C574.791 79.496 575.975 79.768 577.479 79.768C579.879 79.768 581.079 79.208 581.079 78.088C581.079 77.512 580.727 77.08 580.023 76.792C579.351 76.472 578.247 76.168 576.711 75.88C573.831 75.368 571.591 74.552 569.991 73.432C568.423 72.312 567.639 70.6 567.639 68.296C567.639 66.728 568.087 65.336 568.983 64.12C569.879 62.904 571.111 61.944 572.679 61.24C574.247 60.536 576.055 60.184 578.103 60.184C580.759 60.184 582.951 60.808 584.679 62.056C586.439 63.304 587.479 64.84 587.799 66.664L581.799 68.296C581.575 67.592 581.127 67.016 580.455 66.568C579.815 66.12 578.935 65.896 577.815 65.896C576.759 65.896 575.975 66.072 575.463 66.424C574.983 66.776 574.743 67.192 574.743 67.672C574.743 68.248 575.079 68.712 575.751 69.064C576.423 69.384 577.607 69.72 579.303 70.072C581.031 70.392 582.551 70.84 583.863 71.416C585.207 71.96 586.247 72.728 586.983 73.72C587.751 74.68 588.135 75.992 588.135 77.656C588.135 79.224 587.671 80.6 586.743 81.784C585.847 82.968 584.599 83.88 582.999 84.52C581.399 85.16 579.575 85.48 577.527 85.48ZM599.912 85.48C597.096 85.48 594.968 84.52 593.528 82.6C592.088 80.68 591.384 78.008 591.416 74.584L591.512 60.568H598.856L598.76 74.008C598.76 75.448 599.016 76.584 599.528 77.416C600.04 78.248 600.84 78.664 601.928 78.664C602.856 78.664 603.704 78.376 604.472 77.8C605.24 77.224 605.912 76.264 606.488 74.92C607.064 73.576 607.512 71.736 607.832 69.4C608.184 67.064 608.376 64.12 608.408 60.568H615.512V85H608.168L608.504 80.296C607.544 81.96 606.328 83.24 604.856 84.136C603.384 85.032 601.736 85.48 599.912 85.48ZM632.329 85.48C629.801 85.48 627.609 85 625.753 84.04C623.897 83.048 622.457 81.64 621.433 79.816C620.409 77.992 619.896 75.816 619.896 73.288C619.896 70.696 620.441 68.424 621.529 66.472C622.649 64.488 624.185 62.952 626.137 61.864C628.089 60.744 630.361 60.184 632.953 60.184C635.065 60.184 636.937 60.6 638.569 61.432C640.201 62.264 641.513 63.56 642.505 65.32L637.321 69.256C636.809 68.328 636.201 67.656 635.497 67.24C634.825 66.824 633.977 66.616 632.953 66.616C631.385 66.616 630.089 67.224 629.065 68.44C628.041 69.624 627.529 71.192 627.529 73.144C627.529 75.032 627.977 76.488 628.873 77.512C629.801 78.536 631.129 79.048 632.857 79.048C633.785 79.048 634.633 78.84 635.401 78.424C636.201 77.976 636.873 77.288 637.417 76.36L642.457 80.392C641.369 82.248 639.929 83.56 638.137 84.328C636.377 85.096 634.441 85.48 632.329 85.48ZM655.25 85.48C652.722 85.48 650.53 85 648.674 84.04C646.818 83.048 645.378 81.64 644.354 79.816C643.33 77.992 642.818 75.816 642.818 73.288C642.818 70.696 643.362 68.424 644.45 66.472C645.57 64.488 647.106 62.952 649.058 61.864C651.01 60.744 653.282 60.184 655.874 60.184C657.986 60.184 659.858 60.6 661.49 61.432C663.122 62.264 664.434 63.56 665.426 65.32L660.242 69.256C659.73 68.328 659.122 67.656 658.418 67.24C657.746 66.824 656.898 66.616 655.874 66.616C654.306 66.616 653.01 67.224 651.986 68.44C650.962 69.624 650.45 71.192 650.45 73.144C650.45 75.032 650.898 76.488 651.794 77.512C652.722 78.536 654.05 79.048 655.778 79.048C656.706 79.048 657.554 78.84 658.322 78.424C659.122 77.976 659.794 77.288 660.338 76.36L665.378 80.392C664.29 82.248 662.85 83.56 661.058 84.328C659.298 85.096 657.362 85.48 655.25 85.48ZM679.036 85.48C676.316 85.48 673.964 84.984 671.98 83.992C669.996 82.968 668.46 81.544 667.372 79.72C666.284 77.864 665.74 75.672 665.74 73.144C665.74 70.584 666.284 68.328 667.372 66.376C668.492 64.424 669.98 62.904 671.836 61.816C673.724 60.728 675.852 60.184 678.22 60.184C680.908 60.184 683.1 60.792 684.796 62.008C686.492 63.224 687.66 64.952 688.3 67.192C688.972 69.4 689.116 71.976 688.732 74.92H673.228C673.42 76.136 674.06 77.16 675.148 77.992C676.236 78.792 677.724 79.192 679.612 79.192C680.476 79.192 681.388 79.016 682.348 78.664C683.308 78.28 684.124 77.72 684.796 76.984L688.876 81.304C687.82 82.584 686.508 83.608 684.94 84.376C683.404 85.112 681.436 85.48 679.036 85.48ZM678.364 65.512C677.084 65.512 675.996 65.896 675.1 66.664C674.236 67.432 673.66 68.504 673.372 69.88H682.54C682.572 68.376 682.204 67.272 681.436 66.568C680.7 65.864 679.676 65.512 678.364 65.512ZM702.214 85.48C698.662 85.48 695.974 84.824 694.15 83.512C692.326 82.168 691.254 80.408 690.934 78.232L697.03 76.696C697.222 77.624 697.75 78.376 698.614 78.952C699.478 79.496 700.662 79.768 702.166 79.768C704.566 79.768 705.766 79.208 705.766 78.088C705.766 77.512 705.414 77.08 704.71 76.792C704.038 76.472 702.934 76.168 701.398 75.88C698.518 75.368 696.278 74.552 694.678 73.432C693.11 72.312 692.326 70.6 692.326 68.296C692.326 66.728 692.774 65.336 693.67 64.12C694.566 62.904 695.798 61.944 697.366 61.24C698.934 60.536 700.742 60.184 702.79 60.184C705.446 60.184 707.638 60.808 709.366 62.056C711.126 63.304 712.166 64.84 712.486 66.664L706.486 68.296C706.262 67.592 705.814 67.016 705.142 66.568C704.502 66.12 703.622 65.896 702.502 65.896C701.446 65.896 700.662 66.072 700.15 66.424C699.67 66.776 699.43 67.192 699.43 67.672C699.43 68.248 699.766 68.712 700.438 69.064C701.11 69.384 702.294 69.72 703.99 70.072C705.718 70.392 707.238 70.84 708.55 71.416C709.894 71.96 710.934 72.728 711.67 73.72C712.438 74.68 712.822 75.992 712.822 77.656C712.822 79.224 712.358 80.6 711.43 81.784C710.534 82.968 709.286 83.88 707.686 84.52C706.086 85.16 704.262 85.48 702.214 85.48ZM725.511 85.48C721.959 85.48 719.271 84.824 717.447 83.512C715.623 82.168 714.551 80.408 714.231 78.232L720.327 76.696C720.519 77.624 721.047 78.376 721.911 78.952C722.775 79.496 723.959 79.768 725.463 79.768C727.863 79.768 729.063 79.208 729.063 78.088C729.063 77.512 728.711 77.08 728.007 76.792C727.335 76.472 726.231 76.168 724.695 75.88C721.815 75.368 719.575 74.552 717.975 73.432C716.407 72.312 715.623 70.6 715.623 68.296C715.623 66.728 716.071 65.336 716.967 64.12C717.863 62.904 719.095 61.944 720.663 61.24C722.231 60.536 724.039 60.184 726.087 60.184C728.743 60.184 730.935 60.808 732.663 62.056C734.423 63.304 735.463 64.84 735.783 66.664L729.783 68.296C729.559 67.592 729.111 67.016 728.439 66.568C727.799 66.12 726.919 65.896 725.799 65.896C724.743 65.896 723.959 66.072 723.447 66.424C722.967 66.776 722.727 67.192 722.727 67.672C722.727 68.248 723.063 68.712 723.735 69.064C724.407 69.384 725.591 69.72 727.287 70.072C729.015 70.392 730.535 70.84 731.847 71.416C733.191 71.96 734.231 72.728 734.967 73.72C735.735 74.68 736.119 75.992 736.119 77.656C736.119 79.224 735.655 80.6 734.727 81.784C733.831 82.968 732.583 83.88 730.983 84.52C729.383 85.16 727.559 85.48 725.511 85.48ZM760.902 85.48C757.35 85.48 754.662 84.824 752.838 83.512C751.014 82.168 749.942 80.408 749.622 78.232L755.718 76.696C755.91 77.624 756.438 78.376 757.302 78.952C758.166 79.496 759.35 79.768 760.854 79.768C763.254 79.768 764.454 79.208 764.454 78.088C764.454 77.512 764.102 77.08 763.398 76.792C762.726 76.472 761.622 76.168 760.086 75.88C757.206 75.368 754.966 74.552 753.366 73.432C751.798 72.312 751.014 70.6 751.014 68.296C751.014 66.728 751.462 65.336 752.358 64.12C753.254 62.904 754.486 61.944 756.054 61.24C757.622 60.536 759.43 60.184 761.478 60.184C764.134 60.184 766.326 60.808 768.054 62.056C769.814 63.304 770.854 64.84 771.174 66.664L765.174 68.296C764.95 67.592 764.502 67.016 763.83 66.568C763.19 66.12 762.31 65.896 761.19 65.896C760.134 65.896 759.35 66.072 758.838 66.424C758.358 66.776 758.118 67.192 758.118 67.672C758.118 68.248 758.454 68.712 759.126 69.064C759.798 69.384 760.982 69.72 762.678 70.072C764.406 70.392 765.926 70.84 767.238 71.416C768.582 71.96 769.622 72.728 770.358 73.72C771.126 74.68 771.51 75.992 771.51 77.656C771.51 79.224 771.046 80.6 770.118 81.784C769.222 82.968 767.974 83.88 766.374 84.52C764.774 85.16 762.95 85.48 760.902 85.48ZM785.746 85.48C782.738 85.48 780.354 84.648 778.594 82.984C776.834 81.288 775.97 79.064 776.002 76.312L776.194 66.664H772.162V60.568H776.29L776.338 55.576H783.634L783.586 60.568H791.218V66.664H783.49L783.346 75.496C783.346 76.648 783.65 77.544 784.258 78.184C784.866 78.824 785.778 79.144 786.994 79.144C787.698 79.144 788.37 79.064 789.01 78.904C789.682 78.712 790.37 78.36 791.074 77.848L793.186 83.464C791.554 84.808 789.074 85.48 785.746 85.48ZM806.768 60.184C810.576 60.184 813.552 61.272 815.696 63.448C817.872 65.624 818.96 68.568 818.96 72.28C818.96 74.808 818.416 77.064 817.328 79.048C816.24 81.032 814.704 82.6 812.72 83.752C810.736 84.904 808.4 85.48 805.712 85.48C801.936 85.48 798.96 84.392 796.784 82.216C794.64 80.04 793.568 77.112 793.568 73.432C793.568 70.872 794.112 68.6 795.2 66.616C796.288 64.632 797.824 63.064 799.808 61.912C801.792 60.76 804.112 60.184 806.768 60.184ZM806.048 79.096C807.68 79.096 808.976 78.488 809.936 77.272C810.928 76.024 811.424 74.36 811.424 72.28C811.424 70.488 810.992 69.096 810.128 68.104C809.264 67.08 808.08 66.568 806.576 66.568C804.912 66.568 803.584 67.192 802.592 68.44C801.632 69.656 801.152 71.304 801.152 73.384C801.152 75.176 801.568 76.584 802.4 77.608C803.264 78.6 804.48 79.096 806.048 79.096ZM840.162 67.672C839.522 67.416 838.658 67.288 837.57 67.288C835.906 67.288 834.578 67.88 833.586 69.064C832.594 70.216 831.874 72.104 831.426 74.728C830.978 77.32 830.754 80.744 830.754 85H823.458V69.16L823.362 60.568H830.706L830.37 66.664C831.234 64.328 832.386 62.664 833.826 61.672C835.298 60.68 836.866 60.184 838.53 60.184C839.074 60.184 839.57 60.216 840.018 60.28C840.498 60.344 840.978 60.456 841.458 60.616L840.162 67.672ZM851.239 60.568V85H843.895V60.568H851.239ZM847.543 57.688C846.135 57.688 845.015 57.256 844.183 56.392C843.351 55.528 842.935 54.504 842.935 53.32C842.935 52.136 843.335 51.112 844.135 50.248C844.967 49.384 846.103 48.952 847.543 48.952C848.951 48.952 850.071 49.384 850.903 50.248C851.735 51.112 852.151 52.136 852.151 53.32C852.151 54.504 851.735 55.528 850.903 56.392C850.071 57.256 848.951 57.688 847.543 57.688ZM868.88 85.48C866.16 85.48 863.808 84.984 861.824 83.992C859.84 82.968 858.304 81.544 857.216 79.72C856.128 77.864 855.584 75.672 855.584 73.144C855.584 70.584 856.128 68.328 857.216 66.376C858.336 64.424 859.824 62.904 861.68 61.816C863.568 60.728 865.696 60.184 868.064 60.184C870.752 60.184 872.944 60.792 874.64 62.008C876.336 63.224 877.504 64.952 878.144 67.192C878.816 69.4 878.96 71.976 878.576 74.92H863.072C863.264 76.136 863.904 77.16 864.992 77.992C866.08 78.792 867.568 79.192 869.456 79.192C870.32 79.192 871.232 79.016 872.192 78.664C873.152 78.28 873.968 77.72 874.64 76.984L878.72 81.304C877.664 82.584 876.352 83.608 874.784 84.376C873.248 85.112 871.28 85.48 868.88 85.48ZM868.208 65.512C866.928 65.512 865.84 65.896 864.944 66.664C864.08 67.432 863.504 68.504 863.216 69.88H872.384C872.416 68.376 872.048 67.272 871.28 66.568C870.544 65.864 869.52 65.512 868.208 65.512ZM892.058 85.48C888.506 85.48 885.818 84.824 883.994 83.512C882.17 82.168 881.098 80.408 880.778 78.232L886.874 76.696C887.066 77.624 887.594 78.376 888.458 78.952C889.322 79.496 890.506 79.768 892.01 79.768C894.41 79.768 895.61 79.208 895.61 78.088C895.61 77.512 895.258 77.08 894.554 76.792C893.882 76.472 892.778 76.168 891.242 75.88C888.362 75.368 886.122 74.552 884.522 73.432C882.954 72.312 882.17 70.6 882.17 68.296C882.17 66.728 882.618 65.336 883.514 64.12C884.41 62.904 885.642 61.944 887.21 61.24C888.778 60.536 890.586 60.184 892.634 60.184C895.29 60.184 897.482 60.808 899.21 62.056C900.97 63.304 902.01 64.84 902.33 66.664L896.33 68.296C896.106 67.592 895.658 67.016 894.986 66.568C894.346 66.12 893.466 65.896 892.346 65.896C891.29 65.896 890.506 66.072 889.994 66.424C889.514 66.776 889.274 67.192 889.274 67.672C889.274 68.248 889.61 68.712 890.282 69.064C890.954 69.384 892.138 69.72 893.834 70.072C895.562 70.392 897.082 70.84 898.394 71.416C899.738 71.96 900.778 72.728 901.514 73.72C902.282 74.68 902.666 75.992 902.666 77.656C902.666 79.224 902.202 80.6 901.274 81.784C900.378 82.968 899.13 83.88 897.53 84.52C895.93 85.16 894.106 85.48 892.058 85.48ZM910.123 85.48C908.587 85.48 907.371 85.016 906.475 84.088C905.579 83.16 905.131 82.008 905.131 80.632C905.131 79.256 905.579 78.104 906.475 77.176C907.371 76.248 908.587 75.784 910.123 75.784C911.659 75.784 912.875 76.248 913.771 77.176C914.699 78.104 915.163 79.256 915.163 80.632C915.163 82.008 914.699 83.16 913.771 84.088C912.875 85.016 911.659 85.48 910.123 85.48Z" fill="#79C8C7"/>
</svg>
