<svg width="523" height="177" viewBox="0 0 523 177" fill="none" xmlns="http://www.w3.org/2000/svg">
<path d="M48 19.1H17.7V34.2H45.9V48.2H17.7V76H1.7V5H48V19.1ZM68.9344 25.1V76H53.6344V25.1H68.9344ZM61.2344 19.1C58.301 19.1 55.9677 18.2 54.2344 16.4C52.501 14.6 51.6344 12.4667 51.6344 10C51.6344 7.53333 52.4677 5.4 54.1344 3.6C55.8677 1.8 58.2344 0.899995 61.2344 0.899995C64.1677 0.899995 66.501 1.8 68.2344 3.6C69.9677 5.4 70.8344 7.53333 70.8344 10C70.8344 12.4667 69.9677 14.6 68.2344 16.4C66.501 18.2 64.1677 19.1 61.2344 19.1ZM80.5875 76V25.1H95.7875L95.0875 36C97.1542 32.2667 99.7875 29.4 102.988 27.4C106.254 25.3333 109.888 24.3 113.888 24.3C119.954 24.3 124.488 26.3667 127.487 30.5C130.488 34.5667 131.954 40.4333 131.888 48.1L131.688 76H116.388L116.588 49.2C116.654 45.7333 116.121 43.1 114.988 41.3C113.921 39.4333 112.188 38.5 109.788 38.5C107.788 38.5 105.954 39.1 104.288 40.3C102.621 41.4333 101.154 43.4 99.8875 46.2C98.6875 49 97.7208 52.8333 96.9875 57.7C96.2542 62.5667 95.8542 68.6667 95.7875 76H80.5875ZM192.892 2V76H177.492L177.992 68.5C174.326 74.1667 168.892 77 161.692 77C157.159 77 153.292 75.9667 150.092 73.9C146.892 71.8333 144.459 68.9667 142.792 65.3C141.126 61.6333 140.292 57.4333 140.292 52.7C140.292 47.0333 141.459 42.0667 143.792 37.8C146.126 33.5333 149.259 30.2333 153.192 27.9C157.126 25.5 161.526 24.3 166.392 24.3C168.659 24.3 170.759 24.6333 172.692 25.3C174.626 25.9667 176.292 26.9 177.692 28.1L177.592 25.1V2H192.892ZM167.892 37.6C164.226 37.6 161.326 38.9667 159.192 41.7C157.126 44.4333 156.092 47.9333 156.092 52.2C156.092 55.8667 156.892 58.7 158.492 60.7C160.159 62.7 162.392 63.7 165.192 63.7C168.592 63.7 171.492 62.3 173.892 59.5C176.359 56.7 177.592 53.0333 177.592 48.5C177.592 45.1 176.726 42.4333 174.992 40.5C173.259 38.5667 170.892 37.6 167.892 37.6ZM252.804 77C246.537 77 241.571 75.2667 237.904 71.8C234.237 68.2667 232.437 63.6333 232.504 57.9L232.904 37.8H224.504V25.1H233.104L233.204 14.7H248.404L248.304 25.1H264.204V37.8H248.104L247.804 56.2C247.804 58.6 248.437 60.4667 249.704 61.8C250.971 63.1333 252.871 63.8 255.404 63.8C256.871 63.8 258.271 63.6333 259.604 63.3C261.004 62.9 262.437 62.1667 263.904 61.1L268.304 72.8C264.904 75.6 259.737 77 252.804 77ZM272.677 76V2H287.977L288.077 25.1L287.277 35.8C289.344 32.1333 291.977 29.3 295.177 27.3C298.444 25.3 302.044 24.3 305.977 24.3C312.044 24.3 316.577 26.3667 319.577 30.5C322.577 34.5667 324.044 40.4333 323.977 48.1L323.777 76H308.477L308.677 49.2C308.744 45.7333 308.211 43.1 307.077 41.3C306.011 39.4333 304.277 38.5 301.877 38.5C299.877 38.5 298.044 39.1 296.377 40.3C294.711 41.4333 293.244 43.4 291.977 46.2C290.777 49 289.811 52.8333 289.077 57.7C288.344 62.5667 287.944 68.6667 287.877 76H272.677ZM360.082 77C354.415 77 349.515 75.9667 345.382 73.9C341.249 71.7667 338.049 68.8 335.782 65C333.515 61.1333 332.382 56.5667 332.382 51.3C332.382 45.9667 333.515 41.2667 335.782 37.2C338.115 33.1333 341.215 29.9667 345.082 27.7C349.015 25.4333 353.449 24.3 358.382 24.3C363.982 24.3 368.549 25.5667 372.082 28.1C375.615 30.6333 378.049 34.2333 379.382 38.9C380.782 43.5 381.082 48.8667 380.282 55H347.982C348.382 57.5333 349.715 59.6667 351.982 61.4C354.249 63.0667 357.349 63.9 361.282 63.9C363.082 63.9 364.982 63.5333 366.982 62.8C368.982 62 370.682 60.8333 372.082 59.3L380.582 68.3C378.382 70.9667 375.649 73.1 372.382 74.7C369.182 76.2333 365.082 77 360.082 77ZM358.682 35.4C356.015 35.4 353.749 36.2 351.882 37.8C350.082 39.4 348.882 41.6333 348.282 44.5H367.382C367.449 41.3667 366.682 39.0667 365.082 37.6C363.549 36.1333 361.415 35.4 358.682 35.4ZM0.9 176V102H16.2V125.1L15.7 132.9C19.3667 127.167 24.8333 124.3 32.1 124.3C36.6333 124.3 40.5 125.333 43.7 127.4C46.9 129.467 49.3333 132.333 51 136C52.6667 139.667 53.5 143.867 53.5 148.6C53.5 154.267 52.3333 159.233 50 163.5C47.6667 167.767 44.5333 171.1 40.6 173.5C36.6667 175.833 32.2667 177 27.4 177C24.1333 177 21.2667 176.367 18.8 175.1C16.4 173.767 14.5333 172.033 13.2 169.9L11.8 176H0.9ZM25.8 163.7C29.4667 163.7 32.3667 162.333 34.5 159.6C36.6333 156.8 37.7 153.267 37.7 149C37.7 145.4 36.8667 142.6 35.2 140.6C33.6 138.6 31.4 137.6 28.6 137.6C25.2 137.6 22.2667 139 19.8 141.8C17.4 144.6 16.2 148.267 16.2 152.8C16.2 156.133 17.0667 158.8 18.8 160.8C20.5333 162.733 22.8667 163.7 25.8 163.7ZM87.8164 177C82.1497 177 77.2497 175.967 73.1164 173.9C68.9831 171.767 65.7831 168.8 63.5164 165C61.2497 161.133 60.1164 156.567 60.1164 151.3C60.1164 145.967 61.2497 141.267 63.5164 137.2C65.8497 133.133 68.9497 129.967 72.8164 127.7C76.7497 125.433 81.1831 124.3 86.1164 124.3C91.7164 124.3 96.2831 125.567 99.8164 128.1C103.35 130.633 105.783 134.233 107.116 138.9C108.516 143.5 108.816 148.867 108.016 155H75.7164C76.1164 157.533 77.4497 159.667 79.7164 161.4C81.9831 163.067 85.0831 163.9 89.0164 163.9C90.8164 163.9 92.7164 163.533 94.7164 162.8C96.7164 162 98.4164 160.833 99.8164 159.3L108.316 168.3C106.116 170.967 103.383 173.1 100.116 174.7C96.9164 176.233 92.8164 177 87.8164 177ZM86.4164 135.4C83.7497 135.4 81.4831 136.2 79.6164 137.8C77.8164 139.4 76.6164 141.633 76.0164 144.5H95.1164C95.1831 141.367 94.4164 139.067 92.8164 137.6C91.2831 136.133 89.1497 135.4 86.4164 135.4ZM136.104 177C128.704 177 123.104 175.633 119.304 172.9C115.504 170.1 113.271 166.433 112.604 161.9L125.304 158.7C125.704 160.633 126.804 162.2 128.604 163.4C130.404 164.533 132.871 165.1 136.004 165.1C141.004 165.1 143.504 163.933 143.504 161.6C143.504 160.4 142.771 159.5 141.304 158.9C139.904 158.233 137.604 157.6 134.404 157C128.404 155.933 123.737 154.233 120.404 151.9C117.137 149.567 115.504 146 115.504 141.2C115.504 137.933 116.437 135.033 118.304 132.5C120.171 129.967 122.737 127.967 126.004 126.5C129.271 125.033 133.037 124.3 137.304 124.3C142.837 124.3 147.404 125.6 151.004 128.2C154.671 130.8 156.837 134 157.504 137.8L145.004 141.2C144.537 139.733 143.604 138.533 142.204 137.6C140.871 136.667 139.037 136.2 136.704 136.2C134.504 136.2 132.871 136.567 131.804 137.3C130.804 138.033 130.304 138.9 130.304 139.9C130.304 141.1 131.004 142.067 132.404 142.8C133.804 143.467 136.271 144.167 139.804 144.9C143.404 145.567 146.571 146.5 149.304 147.7C152.104 148.833 154.271 150.433 155.804 152.5C157.404 154.5 158.204 157.233 158.204 160.7C158.204 163.967 157.237 166.833 155.304 169.3C153.437 171.767 150.837 173.667 147.504 175C144.171 176.333 140.371 177 136.104 177ZM187.863 177C181.596 177 176.629 175.267 172.963 171.8C169.296 168.267 167.496 163.633 167.563 157.9L167.963 137.8H159.563V125.1H168.163L168.263 114.7H183.463L183.363 125.1H199.263V137.8H183.163L182.863 156.2C182.863 158.6 183.496 160.467 184.762 161.8C186.029 163.133 187.929 163.8 190.463 163.8C191.929 163.8 193.329 163.633 194.663 163.3C196.063 162.9 197.496 162.167 198.963 161.1L203.363 172.8C199.963 175.6 194.796 177 187.863 177Z" fill="white"/>
<path d="M255.831 177C249.565 177 244.598 175.267 240.931 171.8C237.265 168.267 235.465 163.633 235.531 157.9L235.931 137.8H227.531V125.1H236.131L236.231 114.7H251.431L251.331 125.1H267.231V137.8H251.131L250.831 156.2C250.831 158.6 251.465 160.467 252.731 161.8C253.998 163.133 255.898 163.8 258.431 163.8C259.898 163.8 261.298 163.633 262.631 163.3C264.031 162.9 265.465 162.167 266.931 161.1L271.331 172.8C267.931 175.6 262.765 177 255.831 177ZM324.728 125.3V176H309.328L309.828 168.4C306.161 174.133 300.728 177 293.528 177C288.995 177 285.128 175.967 281.928 173.9C278.728 171.833 276.295 168.967 274.628 165.3C272.961 161.633 272.128 157.433 272.128 152.7C272.128 147.033 273.295 142.067 275.628 137.8C277.961 133.533 281.095 130.233 285.028 127.9C288.961 125.5 293.361 124.3 298.228 124.3C301.428 124.3 304.261 124.967 306.728 126.3C309.195 127.567 311.095 129.267 312.428 131.4L313.728 125.3H324.728ZM299.728 137.6C296.061 137.6 293.161 138.967 291.028 141.7C288.961 144.433 287.928 147.933 287.928 152.2C287.928 155.867 288.728 158.7 290.328 160.7C291.995 162.7 294.228 163.7 297.028 163.7C300.428 163.7 303.328 162.3 305.728 159.5C308.195 156.7 309.428 153.033 309.428 148.5C309.428 145.1 308.561 142.433 306.828 140.5C305.095 138.567 302.728 137.6 299.728 137.6ZM352.545 177C347.411 177 343.445 175.6 340.645 172.8C337.911 169.933 336.545 165.8 336.545 160.4V102H351.845V159.3C351.845 162.367 353.278 163.9 356.145 163.9C357.678 163.9 358.978 163.533 360.045 162.8L363.745 173.7C362.611 174.633 361.045 175.4 359.045 176C357.045 176.667 354.878 177 352.545 177ZM392.016 177C386.349 177 381.449 175.967 377.316 173.9C373.182 171.767 369.982 168.8 367.716 165C365.449 161.133 364.316 156.567 364.316 151.3C364.316 145.967 365.449 141.267 367.716 137.2C370.049 133.133 373.149 129.967 377.016 127.7C380.949 125.433 385.382 124.3 390.316 124.3C395.916 124.3 400.482 125.567 404.016 128.1C407.549 130.633 409.982 134.233 411.316 138.9C412.716 143.5 413.016 148.867 412.216 155H379.916C380.316 157.533 381.649 159.667 383.916 161.4C386.182 163.067 389.282 163.9 393.216 163.9C395.016 163.9 396.916 163.533 398.916 162.8C400.916 162 402.616 160.833 404.016 159.3L412.516 168.3C410.316 170.967 407.582 173.1 404.316 174.7C401.116 176.233 397.016 177 392.016 177ZM390.616 135.4C387.949 135.4 385.682 136.2 383.816 137.8C382.016 139.4 380.816 141.633 380.216 144.5H399.316C399.382 141.367 398.616 139.067 397.016 137.6C395.482 136.133 393.349 135.4 390.616 135.4ZM421.603 176V125.1H436.803L436.103 136C438.17 132.267 440.803 129.4 444.003 127.4C447.27 125.333 450.903 124.3 454.903 124.3C460.97 124.3 465.503 126.367 468.503 130.5C471.503 134.567 472.97 140.433 472.903 148.1L472.703 176H457.403L457.603 149.2C457.67 145.733 457.136 143.1 456.003 141.3C454.936 139.433 453.203 138.5 450.803 138.5C448.803 138.5 446.97 139.1 445.303 140.3C443.636 141.433 442.17 143.4 440.903 146.2C439.703 149 438.736 152.833 438.003 157.7C437.27 162.567 436.87 168.667 436.803 176H421.603ZM506.808 177C500.541 177 495.574 175.267 491.908 171.8C488.241 168.267 486.441 163.633 486.508 157.9L486.908 137.8H478.508V125.1H487.108L487.208 114.7H502.408L502.308 125.1H518.208V137.8H502.108L501.808 156.2C501.808 158.6 502.441 160.467 503.708 161.8C504.974 163.133 506.874 163.8 509.408 163.8C510.874 163.8 512.274 163.633 513.608 163.3C515.008 162.9 516.441 162.167 517.908 161.1L522.308 172.8C518.908 175.6 513.741 177 506.808 177Z" fill="#F67E7E"/>
</svg>
